<svg viewBox="0 0 74 74" xmlns="http://www.w3.org/2000/svg" xmlns:xlink="http://www.w3.org/1999/xlink" width="74.000000" height="74.000000" fill="none">
	<rect id="Icons/game-development" width="74.000000" height="74.000000" x="0.000000" y="0.000000" fill="rgb(255,255,255)" fill-opacity="0" />
	<path id="Vector" d="M32.375 38.1562L41.625 38.1562L41.625 40.4688L32.375 40.4688L32.375 38.1562Z" fill="rgb(255,180,0)" fill-rule="nonzero" />
	<path id="Vector" d="M35.8438 34.6875L38.1562 34.6875L38.1562 43.9375L35.8438 43.9375L35.8438 34.6875Z" fill="rgb(255,180,0)" fill-rule="nonzero" />
	<path id="Vector" d="M65.9062 38.1562L68.2188 38.1562L68.2188 40.4688L65.9062 40.4688L65.9062 38.1562Z" fill="rgb(255,180,0)" fill-rule="nonzero" />
	<path id="Vector" d="M56.6562 38.1562L58.9688 38.1562L58.9688 40.4688L56.6562 40.4688L56.6562 38.1562Z" fill="rgb(255,180,0)" fill-rule="nonzero" />
	<path id="Vector" d="M61.2812 33.5312L63.5938 33.5312L63.5938 35.8438L61.2812 35.8438L61.2812 33.5312Z" fill="rgb(255,180,0)" fill-rule="nonzero" />
	<path id="Vector" d="M61.2812 42.7812L63.5938 42.7812L63.5938 45.0938L61.2812 45.0938L61.2812 42.7812Z" fill="rgb(255,180,0)" fill-rule="nonzero" />
	<path id="Vector" d="M10.6597 20.3789L5.45654 13.875L10.6597 7.37109L12.4652 8.81641L8.4183 13.875L12.4652 18.9336L10.6597 20.3789Z" fill="rgb(255,180,0)" fill-rule="nonzero" />
	<path id="Vector" d="M28.6527 20.3789L26.8472 18.9336L30.8952 13.875L26.8472 8.81641L28.6527 7.37109L33.8547 13.875L28.6527 20.3789Z" fill="rgb(255,180,0)" fill-rule="nonzero" />
	<path id="Vector" d="M14.7378 17.737L22.8338 8.48926L24.5738 10.0119L16.4778 19.2602L14.7378 17.737Z" fill="rgb(255,180,0)" fill-rule="nonzero" />
	<path id="Vector" d="M9.25 50.875L4.625 50.875L4.625 46.25L6.9375 46.25L6.9375 48.5625L9.25 48.5625L9.25 50.875Z" fill="rgb(255,180,0)" fill-rule="nonzero" />
	<path id="Vector" d="M70.5312 2.3125L3.46875 2.3125C1.55315 2.3125 0 3.86565 0 5.78125L0 52.0312C0 53.9469 1.55315 55.5 3.46875 55.5L27.75 55.5L27.75 61.2812C27.75 63.1969 26.1969 64.75 24.2812 64.75L18.5 64.75L18.5 71.6875L55.5 71.6875L55.5 64.75L49.7188 64.75C47.8031 64.75 46.25 63.1969 46.25 61.2812L46.25 55.5L70.5312 55.5C72.4469 55.5 74 53.9469 74 52.0312L74 5.78125C74 3.86565 72.4469 2.3125 70.5312 2.3125ZM53.1875 67.0625L53.1875 69.375L20.8125 69.375L20.8125 67.0625L53.1875 67.0625ZM37 62.4861C38.9156 62.4861 40.4688 60.9329 40.4688 59.0173L40.4688 55.5L43.9375 55.5L43.9375 61.2812C43.942 62.5363 44.3587 63.7552 45.1237 64.75L28.8763 64.75C29.6413 63.7552 30.058 62.5363 30.0625 61.2812L30.0625 55.5L33.5312 55.5L33.5312 59.0173C33.5312 60.9329 35.0844 62.4861 37 62.4861ZM35.8438 59.0173L35.8438 55.5L38.1562 55.5L38.1562 59.0173C38.1562 59.6558 37.6385 60.1736 37 60.1736C36.3615 60.1736 35.8438 59.6558 35.8438 59.0173ZM71.6875 52.0312C71.6875 52.6698 71.1698 53.1875 70.5312 53.1875L3.46875 53.1875C2.83022 53.1875 2.3125 52.6698 2.3125 52.0312L2.3125 41.625L25.669 41.625C26.6265 46.3319 30.3956 49.9553 35.1369 50.726C39.8776 51.4972 44.6009 49.2547 47.0003 45.0938L52.4349 45.0938C54.3725 48.4626 57.8774 50.6288 61.7572 50.8558C65.6369 51.0828 69.3699 49.3399 71.6875 46.2201L71.6875 52.0312ZM62.4375 48.5625C58.923 48.571 55.7112 46.5758 54.1608 43.422L53.8407 42.7812L45.5968 42.7812L45.2767 43.422C43.2487 47.5107 38.5419 49.5099 34.1918 48.1295C29.8412 46.7485 27.1482 42.4019 27.8494 37.8915C28.55 33.3816 32.436 30.0574 37 30.0625L62.4375 30.0625C67.5463 30.0625 71.6875 34.2037 71.6875 39.3125C71.6875 44.4213 67.5463 48.5625 62.4375 48.5625ZM71.6875 32.4049C69.5128 29.4793 66.083 27.7534 62.4375 27.75L37 27.75C30.6169 27.7568 25.4443 32.9294 25.4375 39.3125L2.3125 39.3125L2.3125 5.78125C2.3125 5.14272 2.83022 4.625 3.46875 4.625L70.5312 4.625C71.1698 4.625 71.6875 5.14272 71.6875 5.78125L71.6875 32.4049Z" fill="rgb(255,180,0)" fill-rule="nonzero" />
	<path id="Vector" d="M47.4062 38.1562L52.0312 38.1562L52.0312 40.4688L47.4062 40.4688L47.4062 38.1562Z" fill="rgb(255,180,0)" fill-rule="nonzero" />
	<path id="Vector" d="M34.6875 9.25L43.9375 9.25L43.9375 11.5625L34.6875 11.5625L34.6875 9.25Z" fill="rgb(255,180,0)" fill-rule="nonzero" />
	<path id="Vector" d="M48.5625 9.25L67.0625 9.25L67.0625 11.5625L48.5625 11.5625L48.5625 9.25Z" fill="rgb(255,180,0)" fill-rule="nonzero" />
	<path id="Vector" d="M50.875 13.875L67.0625 13.875L67.0625 16.1875L50.875 16.1875L50.875 13.875Z" fill="rgb(255,180,0)" fill-rule="nonzero" />
	<path id="Vector" d="M37 13.875L46.25 13.875L46.25 16.1875L37 16.1875L37 13.875Z" fill="rgb(255,180,0)" fill-rule="nonzero" />
	<path id="Vector" d="M34.6875 18.5L57.8125 18.5L57.8125 20.8125L34.6875 20.8125L34.6875 18.5Z" fill="rgb(255,180,0)" fill-rule="nonzero" />
	<path id="Vector" d="M62.4375 18.5L67.0625 18.5L67.0625 20.8125L62.4375 20.8125L62.4375 18.5Z" fill="rgb(255,180,0)" fill-rule="nonzero" />
	<path id="Vector" d="M6.9375 23.125L18.5 23.125L18.5 25.4375L6.9375 25.4375L6.9375 23.125Z" fill="rgb(255,180,0)" fill-rule="nonzero" />
	<path id="Vector" d="M23.125 23.125L45.0938 23.125L45.0938 25.4375L23.125 25.4375L23.125 23.125Z" fill="rgb(255,180,0)" fill-rule="nonzero" />
	<path id="Vector" d="M48.5625 23.125L67.0625 23.125L67.0625 25.4375L48.5625 25.4375L48.5625 23.125Z" fill="rgb(255,180,0)" fill-rule="nonzero" />
	<path id="Vector" d="M6.9375 27.75L25.4375 27.75L25.4375 30.0625L6.9375 30.0625L6.9375 27.75Z" fill="rgb(255,180,0)" fill-rule="nonzero" />
	<path id="Vector" d="M6.9375 32.375L16.1875 32.375L16.1875 34.6875L6.9375 34.6875L6.9375 32.375Z" fill="rgb(255,180,0)" fill-rule="nonzero" />
	<path id="Vector" d="M18.5 32.375L23.125 32.375L23.125 34.6875L18.5 34.6875L18.5 32.375Z" fill="rgb(255,180,0)" fill-rule="nonzero" />
</svg>
