<svg viewBox="0 0 18 18" xmlns="http://www.w3.org/2000/svg" xmlns:xlink="http://www.w3.org/1999/xlink" width="18.000000" height="18.000000" fill="none">
	<rect id="Icons/cv" width="18.000000" height="18.000000" x="0.000000" y="0.000000" fill="rgb(255,255,255)" fill-opacity="0" />
	<path id="Vector" d="M12.7636 11.272L9.25 14.6259L5.73638 11.272C3.10301 11.381 1 13.4376 1 15.9759L1 16.3134C1 17.245 1.79185 18.0009 2.76786 18.0009L15.7321 18.0009C16.7081 18.0009 17.5 17.245 17.5 16.3134L17.5 15.9759C17.5 13.4376 15.397 11.381 12.7636 11.272ZM1.50089 2.80635L1.73661 2.85909L1.73661 4.91221C1.47879 5.05987 1.29464 5.31651 1.29464 5.62589C1.29464 5.9212 1.46406 6.16729 1.70346 6.31846L1.12891 8.5087C1.06629 8.75128 1.20625 9.00089 1.40882 9.00089L2.94833 9.00089C3.15089 9.00089 3.29085 8.75128 3.22824 8.5087L2.65368 6.31846C2.89308 6.16729 3.0625 5.9212 3.0625 5.62589C3.0625 5.31651 2.87835 5.05987 2.62054 4.91221L2.62054 3.06299L5.05134 3.62198C4.7346 4.22667 4.53571 4.90167 4.53571 5.62589C4.53571 8.11143 6.64609 10.1259 9.25 10.1259C11.8539 10.1259 13.9643 8.11143 13.9643 5.62589C13.9643 4.90167 13.7691 4.22667 13.4487 3.62198L16.9954 2.80635C17.6657 2.65166 17.6657 1.85362 16.9954 1.69893L9.98292 0.0817384C9.50413 -0.0272461 8.99955 -0.0272461 8.52076 0.0817384L1.50089 1.69541C0.834263 1.8501 0.834263 2.65166 1.50089 2.80635Z" fill="rgb(118,118,118)" fill-rule="nonzero" />
</svg>
