<svg viewBox="0 0 78 78" xmlns="http://www.w3.org/2000/svg" xmlns:xlink="http://www.w3.org/1999/xlink" width="78.000000" height="78.000000" fill="none">
	<rect id="Icons/Photographer" width="78.000000" height="78.000000" x="0.000000" y="0.000000" fill="rgb(255,255,255)" fill-opacity="0" />
	<g id="Group">
		<g id="Group">
			<path id="Vector" d="M55.3546 72.9677L74.7125 72.9677L69.7431 58.0584C68.4435 54.1597 65.1273 51.2686 61.0876 50.5113L47.8062 48.0203L47.8062 44.9469C50.9879 42.6509 53.2335 39.1535 53.8852 35.1201C56.8542 34.6182 59.1288 32.0454 59.1288 28.9355L59.1288 20.129C59.1288 9.03039 50.0984 0 38.9998 0C27.9011 0 18.8708 9.03039 18.8708 20.129L18.8708 28.9355C18.8708 32.0416 21.134 34.6295 24.098 35.1365C24.7522 39.1698 27.0104 42.671 30.1933 44.9657L30.1933 48.0216L16.9107 50.5126C12.8723 51.2699 9.55479 54.1609 8.25521 58.0597L3.28711 72.9677L22.645 72.9677L22.645 70.4516L19.2243 70.4516L21.3491 61.9496L18.9085 61.3407L16.6301 70.4516L6.77698 70.4516L10.643 58.8548C11.6532 55.8228 14.2335 53.5734 17.3749 52.9834L25.3888 51.4813L27.4382 60.7004C26.0996 61.2816 25.1611 62.6126 25.1611 64.1613L25.1611 74.2258C25.1611 76.3066 26.8544 78 28.9353 78L49.0643 78C51.1451 78 52.8385 76.3066 52.8385 74.2258L52.8385 64.1613C52.8385 62.6126 51.9 61.2816 50.5627 60.7004L52.6121 51.4813L60.6259 52.9834C63.7673 53.5734 66.3464 55.8228 67.3578 58.8548L71.2226 70.4516L61.3694 70.4516L59.0911 61.3407L56.6504 61.9496L58.7753 70.4516L55.3546 70.4516L55.3546 72.9677ZM50.1374 51.017L48.4001 58.8346L47.5307 55.3548L42.0368 55.3548L46.9684 50.4232L50.1374 51.017ZM46.1947 60.3871L31.8049 60.3871L32.434 57.871L45.5656 57.871L46.1947 60.3871ZM38.9998 54.834L32.7095 48.5437L32.7095 46.4226C34.6268 47.3057 36.7542 47.8064 38.9998 47.8064C41.2467 47.8064 43.3728 47.2994 45.2901 46.4163L45.2901 48.5437L38.9998 54.834ZM54.0966 32.4782L54.0966 25.394C55.5572 25.9149 56.6127 27.2987 56.6127 28.9367C56.6127 30.5747 55.5572 31.9574 54.0966 32.4782ZM23.903 32.4945C22.4386 31.975 21.3869 30.576 21.3869 28.9355C21.3869 27.295 22.4386 25.896 23.903 25.3764L23.903 32.4945ZM21.3869 23.9359L21.3869 20.129C21.3869 10.4168 29.2875 2.51613 38.9998 2.51613C48.7121 2.51613 56.6127 10.4168 56.6127 20.129L56.6127 23.9359C55.8679 23.3723 55.0074 22.9559 54.0563 22.7685C53.8588 21.2827 52.5982 20.129 51.0596 20.129C50.2607 20.129 49.4782 20.4536 48.8492 21.0826C46.7243 23.2075 44.0321 24.5625 41.1159 25.0028L41.1964 24.8417C41.4052 24.4215 41.5159 23.9523 41.5159 23.483L41.5159 23.166C41.5159 21.4915 40.1534 20.129 38.479 20.129C37.6801 20.129 36.8976 20.4536 36.3314 21.0185C33.6807 23.668 30.1644 25.1374 26.4191 25.1613L26.4191 22.6452L25.1611 22.6452C23.7395 22.6452 22.4411 23.1371 21.3869 23.9359ZM26.4191 32.7097L26.4191 27.6774C30.8362 27.6535 34.9853 25.9224 38.1091 22.7986C38.4123 22.4942 38.9998 22.742 38.9998 23.166L38.9998 23.483C38.9998 23.5635 38.9809 23.6441 38.9444 23.717L36.9642 27.6774L38.9998 27.6774C43.393 27.6774 47.5219 25.9677 50.6897 22.7986C50.9942 22.4942 51.5804 22.742 51.5804 23.166L51.5804 32.7097C51.5804 39.6466 45.9368 45.2903 38.9998 45.2903C32.0628 45.2903 26.4191 39.6466 26.4191 32.7097ZM31.0312 50.4232L35.9628 55.3548L30.4689 55.3548L29.5995 58.8346L27.8621 51.017L31.0312 50.4232ZM28.9353 75.4839C28.2421 75.4839 27.6772 74.9203 27.6772 74.2258L27.6772 64.1613C27.6772 63.4668 28.2421 62.9032 28.9353 62.9032L32.8491 62.9032C31.2124 64.5035 30.1933 66.7303 30.1933 69.1936C30.1933 71.6568 31.2124 73.8836 32.8491 75.4839L28.9353 75.4839ZM38.9998 75.4839C35.5313 75.4839 32.7095 72.662 32.7095 69.1936C32.7095 65.7251 35.5313 62.9032 38.9998 62.9032C42.4683 62.9032 45.2901 65.7251 45.2901 69.1936C45.2901 72.662 42.4683 75.4839 38.9998 75.4839ZM50.3224 74.2258C50.3224 74.9203 49.7575 75.4839 49.0643 75.4839L45.1505 75.4839C46.7872 73.8836 47.8062 71.6568 47.8062 69.1936C47.8062 66.7303 46.7872 64.5035 45.1505 62.9032L49.0643 62.9032C49.7575 62.9032 50.3224 63.4668 50.3224 64.1613L50.3224 74.2258Z" fill="rgb(255,180,0)" fill-rule="nonzero" />
		</g>
	</g>
	<g id="Group">
		<g id="Group">
			<path id="Vector" d="M38.9998 65.4194C36.9189 65.4194 35.2256 67.1128 35.2256 69.1936C35.2256 71.2745 36.9189 72.9678 38.9998 72.9678C41.0806 72.9678 42.774 71.2745 42.774 69.1936C42.774 67.1128 41.0806 65.4194 38.9998 65.4194ZM38.9998 70.4517C38.3066 70.4517 37.7417 69.8881 37.7417 69.1936C37.7417 68.4992 38.3066 67.9356 38.9998 67.9356C39.693 67.9356 40.2578 68.4992 40.2578 69.1936C40.2578 69.8881 39.693 70.4517 38.9998 70.4517Z" fill="rgb(255,180,0)" fill-rule="nonzero" />
		</g>
	</g>
</svg>
