<svg viewBox="0 0 74 74" xmlns="http://www.w3.org/2000/svg" xmlns:xlink="http://www.w3.org/1999/xlink" width="74.000000" height="74.000000" fill="none">
	<rect id="Icons/Microphone" width="74.000000" height="74.000000" x="0.000000" y="0.000000" fill="rgb(255,255,255)" fill-opacity="0" />
	<g id="Group">
		<g id="Group">
			<path id="Vector" d="M36.9997 0C29.0174 0 22.5215 6.75331 22.5215 15.0526L22.5215 37C22.5215 45.3009 29.0174 52.0526 36.9997 52.0526C44.9821 52.0526 51.478 45.3009 51.478 37L51.478 15.0526C51.478 6.75331 44.9821 0 36.9997 0ZM36.9997 48.8352C31.3114 48.8352 26.606 44.3743 25.8547 38.6087L48.1432 38.6087C47.3935 44.3759 42.6881 48.8352 36.9997 48.8352ZM48.2606 35.3913L25.7389 35.3913L25.7389 15.0526C25.7389 8.52609 30.7902 3.21739 36.9997 3.21739C43.2093 3.21739 48.2606 8.52609 48.2606 15.0526L48.2606 35.3913Z" fill="rgb(255,180,0)" fill-rule="nonzero" />
		</g>
	</g>
	<g id="Group">
		<g id="Group">
			<path id="Vector" d="M59.5218 28.9565C58.6338 28.9565 57.9131 29.6772 57.9131 30.5652L57.9131 37C57.9131 48.5312 48.5312 57.9131 37.0001 57.9131C25.4689 57.9131 16.087 48.5312 16.087 37L16.087 30.5652C16.087 29.6772 15.3663 28.9565 14.4783 28.9565C13.5903 28.9565 12.8696 29.6772 12.8696 30.5652L12.8696 37C12.8696 49.7618 22.8355 60.2151 35.3914 61.0484L35.3914 70.7826L27.3479 70.7826C26.4599 70.7826 25.7392 71.5033 25.7392 72.3913C25.7392 73.2793 26.4599 74 27.3479 74L46.6522 74C47.5402 74 48.2609 73.2793 48.2609 72.3913C48.2609 71.5033 47.5402 70.7826 46.6522 70.7826L38.6088 70.7826L38.6088 61.0484C51.1646 60.2151 61.1305 49.7618 61.1305 37L61.1305 30.5652C61.1305 29.6772 60.4098 28.9565 59.5218 28.9565Z" fill="rgb(255,180,0)" fill-rule="nonzero" />
		</g>
	</g>
</svg>
