<svg width="33" height="30" viewBox="0 0 33 30" fill="none" xmlns="http://www.w3.org/2000/svg">
<g filter="url(#filter0_d_2_476)">
<ellipse cx="16.4932" cy="10.8043" rx="12.4932" ry="10.8043" fill="#FFB400"/>
<g clip-path="url(#clip0_2_476)">
<path d="M21.3452 10.5795C21.2954 9.75281 20.963 8.95748 20.3899 8.29435C20.2153 8.45697 20.0287 8.6096 19.8312 8.75128C19.2245 9.18712 18.5465 9.54287 17.8192 9.80695C17.9206 9.99077 18.0136 10.1688 18.0955 10.3369V10.3385C18.1187 10.3854 18.1409 10.4327 18.1623 10.4803C19.0818 10.391 20.0511 10.4235 20.9906 10.5333C21.1157 10.548 21.2335 10.5638 21.3452 10.5795ZM15.6457 6.66674C16.2375 7.38794 16.7833 8.1366 17.2805 8.90937C18.0233 8.65622 18.6373 8.33689 19.1316 7.98133C19.3032 7.85903 19.4647 7.72653 19.615 7.5848C18.7411 6.94915 17.6354 6.60126 16.4935 6.60266C16.2093 6.60249 15.9256 6.62376 15.6457 6.66621V6.66674ZM11.7887 9.75233C12.2024 9.7433 12.6156 9.72175 13.0276 9.68773C14.0233 9.6107 15.0106 9.46635 15.9803 9.25601C15.4735 8.49457 14.9263 7.75376 14.3406 7.03596C13.7149 7.30402 13.1632 7.68533 12.7229 8.15401C12.2825 8.62269 11.964 9.16779 11.7887 9.75233ZM12.7178 13.4487C12.9535 13.1509 13.2632 12.8159 13.6744 12.4514C14.5574 11.6688 15.5995 11.0596 16.8056 10.7234L16.8433 10.714C16.7431 10.5228 16.6489 10.3521 16.5542 10.1914C15.4392 10.4724 14.2647 10.6478 13.0944 10.7387C12.5235 10.7833 12.0116 10.8027 11.635 10.8059C11.6339 11.7684 12.0166 12.7018 12.7185 13.4487H12.7178ZM18.3184 14.6987C18.0842 13.6773 17.7527 12.6744 17.3273 11.7003C16.1115 12.0821 15.1428 12.6404 14.394 13.3064C14.0918 13.5703 13.8236 13.8617 13.5942 14.1756C14.4315 14.716 15.4487 15.0073 16.4935 15.006C17.1189 15.0068 17.7387 14.9028 18.3184 14.6998V14.6987ZM19.4559 14.1341C20.4041 13.5038 21.05 12.593 21.2699 11.5764C21.0634 11.5317 20.8017 11.4871 20.5138 11.4524C19.8738 11.3727 19.2244 11.3669 18.5826 11.4351C18.944 12.3168 19.2358 13.2188 19.4559 14.1347V14.1341ZM16.4935 16.0564C13.1393 16.0564 10.4204 13.705 10.4204 10.8043C10.4204 7.9036 13.1393 5.55225 16.4935 5.55225C19.8476 5.55225 22.5665 7.9036 22.5665 10.8043C22.5665 13.705 19.8476 16.0564 16.4935 16.0564Z" fill="#2B2B2B"/>
</g>
</g>
<defs>
<filter id="filter0_d_2_476" x="0" y="0" width="32.9863" height="29.6084" filterUnits="userSpaceOnUse" color-interpolation-filters="sRGB">
<feFlood flood-opacity="0" result="BackgroundImageFix"/>
<feColorMatrix in="SourceAlpha" type="matrix" values="0 0 0 0 0 0 0 0 0 0 0 0 0 0 0 0 0 0 127 0" result="hardAlpha"/>
<feOffset dy="4"/>
<feGaussianBlur stdDeviation="2"/>
<feComposite in2="hardAlpha" operator="out"/>
<feColorMatrix type="matrix" values="0 0 0 0 0 0 0 0 0 0 0 0 0 0 0 0 0 0 0.25 0"/>
<feBlend mode="normal" in2="BackgroundImageFix" result="effect1_dropShadow_2_476"/>
<feBlend mode="normal" in="SourceGraphic" in2="effect1_dropShadow_2_476" result="shape"/>
</filter>
<clipPath id="clip0_2_476">
<rect width="14.5753" height="12.605" fill="white" transform="translate(9.20557 4.50195)"/>
</clipPath>
</defs>
</svg>
