<svg width="25" height="22" viewBox="0 0 25 22" fill="none" xmlns="http://www.w3.org/2000/svg">
<ellipse cx="12.4932" cy="10.8043" rx="12.4932" ry="10.8043" fill="#FFB400"/>
<g clip-path="url(#clip0_2_460)">
<path d="M12.4935 5.55225C14.1435 5.55225 14.3494 5.5575 14.9968 5.58376C15.6436 5.61002 16.0839 5.69773 16.4713 5.82798C16.8721 5.96138 17.2098 6.14205 17.5475 6.43354C17.8563 6.69609 18.0952 7.01368 18.2477 7.36421C18.3977 7.69877 18.4997 8.08007 18.5301 8.63941C18.5586 9.19928 18.5665 9.37733 18.5665 10.8043C18.5665 12.2313 18.5605 12.4094 18.5301 12.9692C18.4997 13.5286 18.3977 13.9093 18.2477 14.2444C18.0957 14.5951 17.8567 14.9128 17.5475 15.1751C17.2438 15.4421 16.8766 15.6487 16.4713 15.7807C16.0845 15.9104 15.6436 15.9986 14.9968 16.0249C14.3494 16.0496 14.1435 16.0564 12.4935 16.0564C10.8434 16.0564 10.6375 16.0511 9.99015 16.0249C9.34337 15.9986 8.90308 15.9104 8.51562 15.7807C8.11013 15.6491 7.74284 15.4424 7.43947 15.1751C7.1306 14.9126 6.89164 14.595 6.73925 14.2444C6.58863 13.9099 6.48721 13.5286 6.45685 12.9692C6.42831 12.4094 6.42041 12.2313 6.42041 10.8043C6.42041 9.37733 6.42648 9.19928 6.45685 8.63941C6.48721 8.07954 6.58863 7.69929 6.73925 7.36421C6.89122 7.01347 7.13023 6.69579 7.43947 6.43354C7.74292 6.16633 8.1102 5.95966 8.51562 5.82798C8.90308 5.69773 9.34277 5.61002 9.99015 5.58376C10.6375 5.55907 10.8434 5.55225 12.4935 5.55225ZM12.4935 8.17828C11.6881 8.17828 10.9158 8.45495 10.3463 8.94743C9.77686 9.43991 9.45694 10.1078 9.45694 10.8043C9.45694 11.5008 9.77686 12.1687 10.3463 12.6612C10.9158 13.1537 11.6881 13.4304 12.4935 13.4304C13.2988 13.4304 14.0712 13.1537 14.6406 12.6612C15.2101 12.1687 15.53 11.5008 15.53 10.8043C15.53 10.1078 15.2101 9.43991 14.6406 8.94743C14.0712 8.45495 13.2988 8.17828 12.4935 8.17828ZM16.441 8.04698C16.441 7.87286 16.361 7.70588 16.2186 7.58276C16.0762 7.45964 15.8832 7.39047 15.6818 7.39047C15.4805 7.39047 15.2874 7.45964 15.145 7.58276C15.0027 7.70588 14.9227 7.87286 14.9227 8.04698C14.9227 8.2211 15.0027 8.38808 15.145 8.5112C15.2874 8.63432 15.4805 8.70349 15.6818 8.70349C15.8832 8.70349 16.0762 8.63432 16.2186 8.5112C16.361 8.38808 16.441 8.2211 16.441 8.04698ZM12.4935 9.2287C12.9767 9.2287 13.4401 9.3947 13.7818 9.69019C14.1234 9.98567 14.3154 10.3864 14.3154 10.8043C14.3154 11.2222 14.1234 11.623 13.7818 11.9185C13.4401 12.2139 12.9767 12.3799 12.4935 12.3799C12.0103 12.3799 11.5469 12.2139 11.2052 11.9185C10.8635 11.623 10.6716 11.2222 10.6716 10.8043C10.6716 10.3864 10.8635 9.98567 11.2052 9.69019C11.5469 9.3947 12.0103 9.2287 12.4935 9.2287Z" fill="#2B2B2B"/>
</g>
<defs>
<clipPath id="clip0_2_460">
<rect width="14.5753" height="12.605" fill="white" transform="translate(5.20557 4.50195)"/>
</clipPath>
</defs>
</svg>
