<svg width="25" height="22" viewBox="0 0 25 22" fill="none" xmlns="http://www.w3.org/2000/svg">
<ellipse cx="12.4932" cy="10.8043" rx="12.4932" ry="10.8043" fill="#FFB400"/>
<g clip-path="url(#clip0_2_468)">
<path d="M9.42043 7.12809C9.42027 7.40668 9.29215 7.6738 9.06425 7.87069C8.83636 8.06758 8.52735 8.17812 8.20522 8.17798C7.88308 8.17784 7.5742 8.06704 7.34653 7.86995C7.11886 7.67286 6.99105 7.40562 6.99121 7.12704C6.99137 6.84845 7.11949 6.58133 7.34739 6.38444C7.57529 6.18754 7.8843 6.07701 8.20643 6.07715C8.52857 6.07729 8.83744 6.18809 9.06511 6.38518C9.29278 6.58227 9.4206 6.8495 9.42043 7.12809ZM9.45687 8.95581H7.02765V15.5314H9.45687V8.95581ZM13.295 8.95581H10.878V15.5314H13.2708V12.0808C13.2708 10.1585 16.1676 9.97996 16.1676 12.0808V15.5314H18.5665V11.3665C18.5665 8.12598 14.2789 8.24678 13.2708 9.83816L13.295 8.95581Z" fill="#2B2B2B"/>
</g>
<defs>
<clipPath id="clip0_2_468">
<rect width="14.5753" height="12.605" fill="white" transform="translate(5.20557 4.50195)"/>
</clipPath>
</defs>
</svg>
