<svg width="25" height="22" viewBox="0 0 25 22" fill="none" xmlns="http://www.w3.org/2000/svg">
<ellipse cx="12.4932" cy="10.8043" rx="12.4932" ry="10.8043" fill="#FFB400"/>
<g clip-path="url(#clip0_2_472)">
<path d="M18.2885 7.91451C18.566 8.85043 18.566 10.8042 18.566 10.8042C18.566 10.8042 18.566 12.758 18.2885 13.6939C18.1342 14.2112 17.683 14.6183 17.1115 14.7559C16.0737 15.0059 12.493 15.0059 12.493 15.0059C12.493 15.0059 8.91413 15.0059 7.87442 14.7559C7.30052 14.6161 6.84989 14.2096 6.69746 13.6939C6.41992 12.758 6.41992 10.8042 6.41992 10.8042C6.41992 10.8042 6.41992 8.85043 6.69746 7.91451C6.85172 7.39718 7.30294 6.99014 7.87442 6.85254C8.91413 6.60254 12.493 6.60254 12.493 6.60254C12.493 6.60254 16.0737 6.60254 17.1115 6.85254C17.6854 6.99224 18.1361 7.39875 18.2885 7.91451ZM11.2784 12.6424L14.9222 10.8042L11.2784 8.96597V12.6424Z" fill="#2B2B2B"/>
</g>
<defs>
<clipPath id="clip0_2_472">
<rect width="14.5753" height="12.605" fill="white" transform="translate(5.20508 4.50195)"/>
</clipPath>
</defs>
</svg>
